<?xml version="1.0" encoding="utf-8"?>
<!-- Generator: Adobe Illustrator 16.0.0, SVG Export Plug-In . SVG Version: 6.00 Build 0)  -->
<!DOCTYPE svg PUBLIC "-//W3C//DTD SVG 1.1//EN" "http://www.w3.org/Graphics/SVG/1.1/DTD/svg11.dtd">
<svg version="1.1" id="Layer_1" xmlns="http://www.w3.org/2000/svg" xmlns:xlink="http://www.w3.org/1999/xlink" x="0px" y="0px"
	 width="142px" height="139px" viewBox="0 0 142 139" enable-background="new 0 0 142 139" xml:space="preserve">
<g>
	<path fill="#010201" d="M138.2,69.4c0-37.3-30.2-67.5-67.5-67.5S3.2,32.2,3.2,69.4c0,33.7,24.7,61.6,57,66.7V89H43V69.4h17.1V54.6
		c0-16.9,10.1-26.3,25.5-26.3c7.4,0,15.1,1.3,15.1,1.3v16.6h-8.5c-8.4,0-11,5.2-11,10.5v12.7h18.7l-3,19.5H81.2v47.2
		C113.5,131.1,138.2,103.1,138.2,69.4z"/>
	<path fill="#FFFFFF" d="M96.9,89l3-19.5H81.2V56.8c0-5.3,2.6-10.5,11-10.5h8.5V29.6c0,0-7.7-1.3-15.1-1.3
		c-15.4,0-25.5,9.3-25.5,26.3v14.9H43V89h17.1v47.2c3.4,0.5,7,0.8,10.5,0.8s7.1-0.3,10.5-0.8V89H96.9z"/>
</g>
</svg>
