<?xml version="1.0" encoding="utf-8"?>
<!-- Generator: Adobe Illustrator 16.0.0, SVG Export Plug-In . SVG Version: 6.00 Build 0)  -->
<!DOCTYPE svg PUBLIC "-//W3C//DTD SVG 1.1//EN" "http://www.w3.org/Graphics/SVG/1.1/DTD/svg11.dtd">
<svg version="1.1" id="Layer_1" xmlns="http://www.w3.org/2000/svg" xmlns:xlink="http://www.w3.org/1999/xlink" x="0px" y="0px"
	 width="142px" height="139px" viewBox="0 0 142 139" enable-background="new 0 0 142 139" xml:space="preserve">
<g>
	<path fill="#010201" d="M138.2,69.4c0-37.3-30.2-67.5-67.5-67.5S3.2,32.2,3.2,69.4c0,33.7,24.7,61.6,57,66.7V89H43V69.4h17.1V54.6
		c0-16.9,10.1-26.3,25.5-26.3c7.4,0,15.1,1.3,15.1,1.3v16.6h-8.5c-8.4,0-11,5.2-11,10.5v12.7h18.7l-3,19.5H81.2v47.2
		C113.5,131.1,138.2,103.1,138.2,69.4z"/>
	<path fill="#FFFFFF" d="M96.9,89l3-19.5H81.2V56.8c0-5.3,2.6-10.5,11-10.5h8.5V29.6c0,0-7.7-1.3-15.1-1.3
		c-15.4,0-25.5,9.3-25.5,26.3v14.9H43V89h17.1v47.2c3.4,0.5,7,0.8,10.5,0.8s7.1-0.3,10.5-0.8V89H96.9z"/>
</g>
<g>
	<circle fill="#010201" cx="71" cy="69.4" r="67.5"/>
	<g>
		<g>
			<path fill="#FFFFFF" d="M71,34.6c11.3,0,12.7,0,17.2,0.2c4.1,0.2,6.4,0.9,7.9,1.5c2,0.8,3.4,1.7,4.9,3.2c1.5,1.5,2.4,2.9,3.2,4.9
				c0.6,1.5,1.3,3.7,1.5,7.9c0.2,4.5,0.2,5.8,0.2,17.2s0,12.7-0.2,17.2c-0.2,4.1-0.9,6.4-1.5,7.9c-0.8,2-1.7,3.4-3.2,4.9
				c-1.5,1.5-2.9,2.4-4.9,3.2c-1.5,0.6-3.7,1.3-7.9,1.5c-4.5,0.2-5.8,0.2-17.2,0.2s-12.7,0-17.2-0.2c-4.1-0.2-6.4-0.9-7.9-1.5
				c-2-0.8-3.4-1.7-4.9-3.2c-1.5-1.5-2.4-2.9-3.2-4.9c-0.6-1.5-1.3-3.7-1.5-7.9c-0.2-4.5-0.2-5.8-0.2-17.2s0-12.7,0.2-17.2
				c0.2-4.1,0.9-6.4,1.5-7.9c0.8-2,1.7-3.4,3.2-4.9c1.5-1.5,2.9-2.4,4.9-3.2c1.5-0.6,3.7-1.3,7.9-1.5C58.3,34.6,59.7,34.6,71,34.6
				 M71,26.9c-11.5,0-13,0-17.5,0.3c-4.5,0.2-7.6,0.9-10.3,2c-2.8,1.1-5.2,2.5-7.5,4.9s-3.8,4.7-4.9,7.5c-1.1,2.7-1.8,5.8-2,10.3
				c-0.2,4.5-0.3,6-0.3,17.5s0,13,0.3,17.5c0.2,4.5,0.9,7.6,2,10.3c1.1,2.8,2.5,5.2,4.9,7.5s4.7,3.8,7.5,4.9c2.7,1.1,5.8,1.8,10.3,2
				c4.5,0.2,6,0.3,17.5,0.3c11.5,0,13,0,17.5-0.3c4.5-0.2,7.6-0.9,10.3-2c2.8-1.1,5.2-2.5,7.5-4.9c2.4-2.4,3.8-4.7,4.9-7.5
				c1.1-2.7,1.8-5.8,2-10.3c0.2-4.5,0.3-6,0.3-17.5c0-11.5,0-13-0.3-17.5c-0.2-4.5-0.9-7.6-2-10.3c-1.1-2.8-2.5-5.2-4.9-7.5
				c-2.4-2.4-4.7-3.8-7.5-4.9c-2.7-1.1-5.8-1.8-10.3-2C84,27,82.5,26.9,71,26.9L71,26.9z"/>
			<path fill="#FFFFFF" d="M71,47.6c-12.1,0-21.8,9.8-21.8,21.8S58.9,91.3,71,91.3c12.1,0,21.8-9.8,21.8-21.8S83.1,47.6,71,47.6z
				 M71,83.6c-7.8,0-14.2-6.3-14.2-14.2S63.2,55.3,71,55.3s14.2,6.3,14.2,14.2S78.8,83.6,71,83.6z"/>
			<circle fill="#FFFFFF" cx="93.7" cy="46.8" r="5.1"/>
		</g>
	</g>
</g>
</svg>
